<svg width="1440" height="134" viewBox="0 0 1440 134" fill="none" xmlns="http://www.w3.org/2000/svg">
<rect width="1440" height="134" fill="#3C1D05"/>
<g opacity="0.1">
<mask id="mask0_40_2236" style="mask-type:alpha" maskUnits="userSpaceOnUse" x="0" y="0" width="1440" height="134">
<rect width="1440" height="134" fill="black"/>
</mask>
<g mask="url(#mask0_40_2236)">
<path d="M-25.5387 108.598C-25.3566 108.495 -25.1573 108.446 -24.9611 108.446C-24.5614 108.446 -24.1715 108.649 -23.9575 109.012L44.6438 225.228H41.9707L-25.9623 110.144C-26.2811 109.603 -26.0923 108.91 -25.5387 108.598Z" fill="#4A4F59"/>
<path d="M-26.4211 82.386C-26.2391 82.2834 -26.0398 82.2343 -25.8436 82.2343C-25.4438 82.2343 -25.0539 82.437 -24.84 82.8004L59.2311 225.228H56.558L-26.8448 83.9326C-27.1642 83.391 -26.9748 82.6978 -26.4211 82.386Z" fill="#4A4F59"/>
<path d="M-24.2556 61.3421C-24.0735 61.2396 -23.8742 61.1904 -23.678 61.1904C-23.2783 61.1904 -22.8884 61.3931 -22.6744 61.7565L73.8206 225.228H71.1474L-24.6787 62.8887C-24.9981 62.3472 -24.8092 61.6546 -24.2556 61.3421Z" fill="#4A4F59"/>
<path d="M-20.2769 43.3698C-20.0948 43.2672 -19.8955 43.2181 -19.6993 43.2181C-19.2996 43.2181 -18.9097 43.4208 -18.6957 43.7842L88.4072 225.228H85.7341L-20.7006 44.9164C-21.0194 44.3743 -20.8305 43.6816 -20.2769 43.3698Z" fill="#4A4F59"/>
<path d="M-15.0263 27.545C-14.8442 27.4424 -14.6449 27.3932 -14.4488 27.3932C-14.049 27.3932 -13.6591 27.5959 -13.4451 27.9593L102.996 225.228H100.323L-15.4506 29.0915C-15.7694 28.55 -15.5806 27.8568 -15.0263 27.545Z" fill="#4A4F59"/>
<path d="M-8.81021 13.3626C-8.62812 13.26 -8.42885 13.2109 -8.23266 13.2109C-7.83292 13.2109 -7.44301 13.4135 -7.22903 13.7769L117.585 225.228H114.911L-9.23389 14.9091C-9.5527 14.3676 -9.36384 13.675 -8.81021 13.3626Z" fill="#4A4F59"/>
<path d="M-1.78586 0.551102C-1.60377 0.448563 -1.40396 0.399399 -1.20838 0.399399C-0.808638 0.399399 -0.418653 0.602081 -0.20468 0.965485L132.173 225.228H129.5L-2.20954 2.09766C-2.52835 1.55615 -2.33949 0.86293 -1.78586 0.551102Z" fill="#4A4F59"/>
<path d="M5.90787 -11.1306C6.08996 -11.2332 6.28923 -11.2823 6.48542 -11.2823C6.88516 -11.2823 7.27507 -11.0797 7.48905 -10.7162L146.76 225.228H144.086L5.48419 -9.58406C5.16538 -10.1256 5.35424 -10.8188 5.90787 -11.1306Z" fill="#4A4F59"/>
<path d="M14.197 -21.8031C14.3791 -21.9056 14.5783 -21.9548 14.7745 -21.9548C15.1743 -21.9548 15.5642 -21.7521 15.7782 -21.3887L161.349 225.228H158.676L13.7733 -20.2565C13.4539 -20.798 13.6434 -21.4906 14.197 -21.8031Z" fill="#4A4F59"/>
<path d="M23.0279 -31.555C23.21 -31.6576 23.4093 -31.7067 23.6055 -31.7067C24.0052 -31.7067 24.3952 -31.504 24.6092 -31.1406L175.937 225.228H173.264L22.6043 -30.0084C22.2849 -30.55 22.4743 -31.2426 23.0279 -31.555Z" fill="#4A4F59"/>
<path d="M32.3621 -40.4554C32.5441 -40.5579 32.7433 -40.6071 32.9395 -40.6071C33.3393 -40.6071 33.7293 -40.4044 33.9432 -40.041L190.526 225.228H187.853L31.9384 -38.9088C31.619 -39.4503 31.8084 -40.1435 32.3621 -40.4554Z" fill="#4A4F59"/>
<path d="M42.1694 -48.554C42.3515 -48.6566 42.5514 -48.7057 42.747 -48.7057C43.1467 -48.7057 43.5366 -48.5031 43.7506 -48.1396L205.113 225.228H202.44L41.7457 -47.0075C41.4269 -47.549 41.6158 -48.2416 42.1694 -48.554Z" fill="#4A4F59"/>
<path d="M52.436 -55.8791C52.6181 -55.9817 52.8179 -56.0308 53.0135 -56.0308C53.4133 -56.0308 53.8032 -55.8281 54.0172 -55.4647L219.702 225.228H217.029L52.0123 -54.3326C51.6935 -54.8741 51.8823 -55.5667 52.436 -55.8791Z" fill="#4A4F59"/>
<path d="M63.15 -62.442C63.3321 -62.5445 63.5314 -62.5937 63.7275 -62.5937C64.1273 -62.5937 64.5172 -62.391 64.7312 -62.0276L234.29 225.228H231.616L62.7263 -60.8954C62.4075 -61.4369 62.5964 -62.1295 63.15 -62.442Z" fill="#4A4F59"/>
<path d="M74.31 -68.2492C74.4921 -68.3518 74.692 -68.4009 74.8876 -68.4009C75.2873 -68.4009 75.6772 -68.1983 75.8912 -67.8349L248.878 225.228H246.205L73.8863 -66.7027C73.5675 -67.2442 73.7564 -67.9374 74.31 -68.2492Z" fill="#4A4F59"/>
<path d="M85.9195 -73.2943C86.1016 -73.3968 86.3008 -73.446 86.497 -73.446C86.8967 -73.446 87.2867 -73.2433 87.5007 -72.8799L263.467 225.228H260.794L85.4958 -71.7477C85.177 -72.2892 85.3659 -72.9825 85.9195 -73.2943Z" fill="#4A4F59"/>
<path d="M274.613 221.66C274.057 221.972 273.35 221.787 273.031 221.246L97.567 -76.0115C97.2482 -76.553 97.4371 -77.2462 97.9907 -77.5581C98.1728 -77.6606 98.3726 -77.7098 98.5682 -77.7098C98.9679 -77.7098 99.3579 -77.5071 99.5719 -77.1437L275.036 220.114C275.356 220.655 275.166 221.348 274.613 221.66Z" fill="#4A4F59"/>
<path d="M283.946 212.76C283.392 213.072 282.684 212.885 282.365 212.346L110.118 -79.4631C109.799 -80.0047 109.988 -80.6979 110.541 -81.0097C110.724 -81.1122 110.923 -81.1614 111.119 -81.1614C111.519 -81.1614 111.909 -80.9587 112.123 -80.5953L284.37 211.213C284.69 211.755 284.5 212.448 283.946 212.76Z" fill="#4A4F59"/>
<path d="M292.777 203.008C292.225 203.322 291.515 203.135 291.196 202.594L123.177 -82.0524C122.859 -82.5939 123.047 -83.2872 123.601 -83.599C123.783 -83.7016 123.982 -83.7507 124.179 -83.7507C124.578 -83.7507 124.968 -83.548 125.182 -83.1846L293.201 201.461C293.52 202.003 293.331 202.696 292.777 203.008Z" fill="#4A4F59"/>
<path d="M301.067 192.335C300.511 192.647 299.805 192.46 299.486 191.921L136.783 -83.7199C136.464 -84.2614 136.653 -84.9546 137.207 -85.2664C137.389 -85.369 137.588 -85.4182 137.784 -85.4182C138.184 -85.4182 138.574 -85.2155 138.788 -84.8521L301.491 190.789C301.81 191.33 301.621 192.024 301.067 192.335Z" fill="#4A4F59"/>
<path d="M308.761 180.654C308.208 180.966 307.498 180.778 307.179 180.239L150.983 -84.3746C150.664 -84.9161 150.853 -85.6093 151.407 -85.9212C151.589 -86.0237 151.789 -86.0729 151.984 -86.0729C152.384 -86.0729 152.774 -85.8702 152.988 -85.5068L309.184 179.107C309.504 179.649 309.314 180.342 308.761 180.654Z" fill="#4A4F59"/>
<path d="M315.786 167.842C315.232 168.152 314.525 167.969 314.205 167.428L165.846 -83.9111C165.528 -84.4526 165.716 -85.1459 166.27 -85.4577C166.452 -85.5602 166.651 -85.6094 166.847 -85.6094C167.247 -85.6094 167.637 -85.4067 167.851 -85.0433L316.21 166.296C316.529 166.837 316.34 167.53 315.786 167.842Z" fill="#4A4F59"/>
<path d="M322.002 153.66C321.446 153.97 320.74 153.787 320.421 153.245L181.505 -82.0995C181.186 -82.641 181.375 -83.3342 181.928 -83.6461C182.11 -83.7486 182.31 -83.7978 182.506 -83.7978C182.905 -83.7978 183.295 -83.5951 183.509 -83.2317L322.426 152.113C322.745 152.655 322.556 153.348 322.002 153.66Z" fill="#4A4F59"/>
<path d="M327.251 137.836C326.699 138.147 325.989 137.96 325.67 137.421L198.122 -78.6609C197.803 -79.2025 197.992 -79.8957 198.545 -80.2075C198.727 -80.3101 198.927 -80.3592 199.123 -80.3592C199.523 -80.3592 199.913 -80.1565 200.127 -79.7931L327.675 136.289C327.994 136.831 327.805 137.524 327.251 137.836Z" fill="#4A4F59"/>
<path d="M331.231 119.863C330.676 120.174 329.968 119.99 329.649 119.448L216.01 -73.0696C215.692 -73.6111 215.88 -74.3043 216.434 -74.6161C216.616 -74.7187 216.815 -74.7678 217.012 -74.7678C217.411 -74.7678 217.801 -74.5652 218.015 -74.2018L331.654 118.316C331.973 118.858 331.784 119.551 331.231 119.863Z" fill="#4A4F59"/>
<path d="M333.396 98.8187C332.84 99.1305 332.133 98.9458 331.814 98.4043L235.711 -64.4073C235.392 -64.9489 235.581 -65.6421 236.134 -65.9539C236.316 -66.0565 236.516 -66.1056 236.712 -66.1056C237.112 -66.1056 237.501 -65.9029 237.715 -65.5395L333.819 97.2721C334.139 97.8136 333.949 98.5069 333.396 98.8187Z" fill="#4A4F59"/>
<path d="M332.513 72.6093C331.961 72.9187 331.251 72.7364 330.932 72.1949L258.515 -50.4905C258.196 -51.0321 258.385 -51.7253 258.939 -52.0371C259.121 -52.1396 259.32 -52.1888 259.516 -52.1888C259.916 -52.1888 260.306 -51.9861 260.52 -51.6227L332.937 71.0628C333.256 71.6043 333.067 72.2975 332.513 72.6093Z" fill="#4A4F59"/>
<path d="M322.664 31.2106C322.112 31.5206 321.402 31.3377 321.083 30.7962L290.393 -21.1969C290.074 -21.7384 290.263 -22.4317 290.817 -22.7435C290.999 -22.8461 291.199 -22.8952 291.394 -22.8952C291.794 -22.8952 292.184 -22.6925 292.398 -22.3291L323.088 29.6641C323.407 30.2056 323.218 30.8988 322.664 31.2106Z" fill="#4A4F59"/>
<path d="M886.5 205.402C857 205.402 833 181.927 833 153.073C833 124.219 857 100.745 886.5 100.745C916 100.745 940 124.219 940 153.073C940 181.927 916 205.402 886.5 205.402ZM886.5 102.743C858.127 102.743 835.043 125.321 835.043 153.074C835.043 180.827 858.127 203.404 886.5 203.404C914.874 203.404 937.958 180.827 937.958 153.074C937.958 125.321 914.874 102.743 886.5 102.743Z" fill="#E0AD7B"/>
<path d="M1275.68 189.436C1198.23 235.423 1116.9 218.564 1046.68 141.977C1014.43 106.804 970.521 64.4179 916.761 48.7196C857.61 31.446 796.335 47.9101 729.435 99.0435C653.904 156.777 590.641 202.241 521.602 218.609C447.294 236.228 371.374 217.43 282.683 159.447C129.851 59.5302 2.41589 29.586 -111 68.447V66.318C2.84841 27.5661 130.665 57.6696 283.815 157.793C371.999 215.443 447.405 234.151 521.123 216.675C589.765 200.401 652.847 155.059 728.181 97.4757C778.392 59.0967 825.507 40.1023 870.991 40.1023C886.614 40.1044 902.047 42.3442 917.344 46.8105C971.591 62.6517 1015.77 105.279 1048.2 140.648C1117.69 216.441 1198.11 233.161 1274.62 187.734C1313.85 164.442 1350.23 155.027 1382.56 155.027C1408.97 155.029 1432.67 161.319 1453 171.463V173.718C1408.26 151.035 1346.7 147.268 1275.68 189.436Z" fill="#E0AD7B"/>
<path d="M1249.08 145.632C1207.88 179.953 1164.31 191.268 1129.55 176.673C1099.93 164.234 1081.04 135.2 1079.02 99.0074C1076.51 53.8662 1066.52 26.8591 1046.63 11.4367C1027.4 -3.47575 998.252 -7.284 957.527 -0.210663C908.041 8.38313 870.66 7.18172 843.237 -3.88342C812.151 -16.4284 793.324 -41.5189 785.679 -80.5905C778.298 -118.314 759.505 -169.488 711.893 -199.042C670.963 -224.446 616.37 -228.846 549.63 -212.123C455.201 -188.457 387.917 -191.207 337.882 -220.762C291.183 -248.349 259.183 -300.023 240.054 -378.737C230.681 -417.304 218.708 -448.023 206 -472.423H208.282C220.887 -448.031 232.739 -417.443 242.033 -379.196C261.031 -301.03 292.727 -249.762 338.934 -222.465C388.47 -193.205 455.258 -190.531 549.124 -214.051C616.431 -230.916 671.559 -226.432 712.984 -200.722C761.21 -170.789 780.222 -119.075 787.679 -80.9628C801.841 -8.57135 854.122 15.7307 957.171 -2.17044C998.507 -9.34926 1028.18 -5.40811 1047.9 9.87666C1068.28 25.6851 1078.51 53.1389 1081.06 98.8978C1083.03 134.318 1101.46 162.709 1130.35 174.842C1164.37 189.124 1207.17 177.927 1247.76 144.115C1298.11 102.18 1341.41 79.493 1384.01 72.714C1407.06 69.046 1429.97 70.0907 1453 75.92V78.1413C1372.31 57.4719 1305.64 98.527 1249.08 145.632Z" fill="#E0AD7B"/>
</g>
</g>
<path d="M1309.75 72.2344L1305.95 68.5144C1305.5 68.0751 1305.5 67.3562 1305.95 66.9168L1309.75 63.1968" stroke="white" stroke-width="1.5" stroke-miterlimit="10" stroke-linecap="round" stroke-linejoin="round"/>
<path d="M1328.62 72C1325.82 72 1324.42 70.7578 1324.42 68.2734C1324.42 67.1432 1324.75 66.2161 1325.41 65.4922C1326.14 64.7005 1327.15 64.3047 1328.45 64.3047C1329.62 64.3047 1330.7 64.4922 1331.67 64.8672V70.8281H1333.45V72H1328.62ZM1330.23 65.8438C1329.71 65.5938 1329.06 65.4688 1328.3 65.4688C1327.56 65.4688 1326.97 65.7109 1326.55 66.1953C1326.12 66.6745 1325.91 67.3125 1325.91 68.1094C1325.91 69.9219 1326.88 70.8281 1328.82 70.8281H1330.23V65.8438ZM1329.51 63.0078C1329.27 63.0078 1329.07 62.9271 1328.9 62.7656C1328.73 62.599 1328.65 62.3906 1328.65 62.1406C1328.65 61.9115 1328.73 61.7135 1328.9 61.5469C1329.07 61.3802 1329.27 61.2969 1329.51 61.2969C1329.74 61.2969 1329.94 61.3776 1330.1 61.5391C1330.26 61.7057 1330.34 61.9062 1330.34 62.1406C1330.34 62.3854 1330.26 62.5911 1330.1 62.7578C1329.94 62.9245 1329.74 63.0078 1329.51 63.0078ZM1327.14 63.0078C1326.9 63.0078 1326.7 62.9271 1326.54 62.7656C1326.38 62.599 1326.3 62.3906 1326.3 62.1406C1326.3 61.9115 1326.38 61.7135 1326.54 61.5469C1326.7 61.3802 1326.9 61.2969 1327.14 61.2969C1327.38 61.2969 1327.58 61.3776 1327.74 61.5391C1327.91 61.7057 1327.99 61.9062 1327.99 62.1406C1327.99 62.3802 1327.91 62.5859 1327.74 62.7578C1327.58 62.9245 1327.38 63.0078 1327.14 63.0078ZM1333.2 70.8281H1335.54V64.4766H1337.01V70.8281H1339.49V72H1333.2V70.8281ZM1335.41 74.3828C1335.41 74.6224 1335.33 74.8255 1335.16 74.9922C1335 75.1641 1334.8 75.25 1334.56 75.25C1334.32 75.25 1334.12 75.1667 1333.96 75C1333.8 74.8385 1333.72 74.6328 1333.72 74.3828C1333.72 74.1484 1333.8 73.9505 1333.96 73.7891C1334.12 73.6224 1334.32 73.5391 1334.56 73.5391C1334.8 73.5391 1335 73.6198 1335.16 73.7812C1335.33 73.9427 1335.41 74.1432 1335.41 74.3828ZM1337.77 74.3828C1337.77 74.6224 1337.68 74.8255 1337.52 74.9922C1337.36 75.1641 1337.16 75.25 1336.93 75.25C1336.69 75.25 1336.49 75.1667 1336.32 75C1336.15 74.8333 1336.07 74.6276 1336.07 74.3828C1336.07 74.1484 1336.15 73.9505 1336.32 73.7891C1336.49 73.6224 1336.69 73.5391 1336.93 73.5391C1337.16 73.5391 1337.36 73.6198 1337.52 73.7812C1337.68 73.9427 1337.77 74.1432 1337.77 74.3828ZM1339.27 70.8281H1339.95C1340.55 70.8281 1340.97 70.6745 1341.21 70.3672C1341.47 70.0391 1341.6 69.4635 1341.6 68.6406V65.4375H1343.07V68.3516C1343.07 69.3047 1343.14 69.9427 1343.27 70.2656C1343.45 70.7188 1343.83 70.9453 1344.41 70.9453C1345.51 70.9453 1346.06 70.0859 1346.06 68.3672V64.7969H1347.49V68.8984C1347.49 69.7109 1347.66 70.2448 1348.01 70.5C1348.31 70.7188 1348.92 70.8281 1349.83 70.8281H1350.35C1350.44 70.099 1350.48 69.3594 1350.48 68.6094C1350.48 67.0156 1350.31 65.5443 1349.95 64.1953L1351.38 63.9375C1351.76 65.3073 1351.95 66.8203 1351.95 68.4766C1351.95 69.1328 1351.92 69.9167 1351.84 70.8281H1353.6V72H1349.88C1348.85 72 1348.11 71.9115 1347.65 71.7344C1347.16 71.5521 1346.81 71.2135 1346.58 70.7188C1346.22 71.6458 1345.42 72.1094 1344.16 72.1094C1343.04 72.1094 1342.35 71.651 1342.09 70.7344C1341.79 71.5781 1341.07 72 1339.95 72H1339.27V70.8281ZM1353.38 70.8281H1355.71V64.4766H1357.18V70.8281H1359.66V72H1353.38V70.8281ZM1355.59 74.3828C1355.59 74.6224 1355.5 74.8255 1355.34 74.9922C1355.17 75.1641 1354.97 75.25 1354.73 75.25C1354.49 75.25 1354.29 75.1667 1354.13 75C1353.97 74.8385 1353.89 74.6328 1353.89 74.3828C1353.89 74.1484 1353.97 73.9505 1354.13 73.7891C1354.29 73.6224 1354.49 73.5391 1354.73 73.5391C1354.97 73.5391 1355.17 73.6198 1355.34 73.7812C1355.5 73.9427 1355.59 74.1432 1355.59 74.3828ZM1357.94 74.3828C1357.94 74.6224 1357.86 74.8255 1357.7 74.9922C1357.53 75.1641 1357.34 75.25 1357.1 75.25C1356.86 75.25 1356.66 75.1667 1356.49 75C1356.33 74.8333 1356.24 74.6276 1356.24 74.3828C1356.24 74.1484 1356.33 73.9505 1356.49 73.7891C1356.66 73.6224 1356.86 73.5391 1357.1 73.5391C1357.34 73.5391 1357.53 73.6198 1357.7 73.7812C1357.86 73.9427 1357.94 74.1432 1357.94 74.3828ZM1360.2 62.1094C1360.66 62.1094 1361.03 62.138 1361.31 62.1953C1361.02 62.0651 1360.88 61.8073 1360.88 61.4219C1360.88 60.9844 1361.03 60.6224 1361.34 60.3359C1361.7 60.0078 1362.22 59.8438 1362.91 59.8438C1363.25 59.8438 1363.54 59.8646 1363.77 59.9062L1363.63 60.7969C1363.25 60.7552 1362.99 60.7344 1362.86 60.7344C1362.27 60.7344 1361.97 60.9531 1361.97 61.3906C1361.97 61.8698 1362.38 62.1094 1363.21 62.1094H1364.08V63.0234H1360.2V62.1094ZM1359.44 70.8281H1361.77V64.4766H1363.24V72H1359.44V70.8281ZM1365.01 76.1094C1364.46 76.1094 1363.91 76.0365 1363.34 75.8906L1363.5 74.6719C1363.99 74.8542 1364.53 74.9453 1365.12 74.9453C1365.83 74.9453 1366.35 74.75 1366.68 74.3594C1367.06 73.9271 1367.25 73.2109 1367.25 72.2109V64.4766H1368.72V70.8281H1370.48V72H1368.72V72.0781C1368.72 74.7656 1367.48 76.1094 1365.01 76.1094ZM1370.25 70.8281H1372.49V60.7188H1373.96V72H1370.25V70.8281ZM1377 60.7188H1378.47V72H1377V60.7188Z" fill="white"/>
<path d="M1205.49 60.7188H1206.97V71.0391C1206.97 72.6172 1206.6 73.8047 1205.85 74.6016C1205.17 75.3307 1204.23 75.6953 1203.02 75.6953C1200.39 75.6953 1199.08 74.2083 1199.08 71.2344C1199.08 70.1875 1199.21 69.1745 1199.48 68.1953L1201 67.9062C1200.7 68.9427 1200.55 70.0026 1200.55 71.0859C1200.55 73.3828 1201.42 74.5312 1203.16 74.5312C1204.71 74.5312 1205.49 73.4167 1205.49 71.1875V60.7188ZM1211.33 76.0469C1210.51 76.0469 1209.67 75.9661 1208.83 75.8047L1208.93 74.5781C1209.83 74.7812 1210.68 74.8828 1211.48 74.8828C1213.52 74.8828 1214.54 74.0495 1214.54 72.3828V72H1212.93C1210.13 72 1208.73 70.7578 1208.73 68.2734C1208.73 67.1432 1209.07 66.2161 1209.73 65.4922C1210.45 64.7005 1211.46 64.3047 1212.77 64.3047C1213.94 64.3047 1215.01 64.4922 1215.98 64.8672V70.8281H1217.74V72H1215.98V72.3047C1215.98 73.3568 1215.64 74.2135 1214.95 74.875C1214.13 75.6562 1212.92 76.0469 1211.33 76.0469ZM1214.54 65.8438C1214.02 65.5938 1213.38 65.4688 1212.61 65.4688C1211.87 65.4688 1211.29 65.7109 1210.86 66.1953C1210.43 66.6745 1210.22 67.3125 1210.22 68.1094C1210.22 69.9219 1211.19 70.8281 1213.13 70.8281H1214.54V65.8438ZM1217.53 70.8281H1224.14C1224.21 70.1771 1224.25 69.6302 1224.25 69.1875C1224.25 67.9375 1223.99 67.0339 1223.48 66.4766C1222.94 65.8828 1222.03 65.5859 1220.75 65.5859C1220.11 65.5859 1219.52 65.6224 1218.97 65.6953V64.5469C1219.53 64.4583 1220.17 64.4141 1220.88 64.4141C1222.59 64.4141 1223.83 64.8099 1224.61 65.6016C1225.34 66.3516 1225.71 67.5078 1225.71 69.0703C1225.71 69.9974 1225.62 70.974 1225.45 72H1217.53V70.8281ZM1221.3 62.7656C1221.07 62.7656 1220.86 62.6823 1220.7 62.5156C1220.53 62.349 1220.45 62.1458 1220.45 61.9062C1220.45 61.6615 1220.53 61.4531 1220.7 61.2812C1220.86 61.1094 1221.07 61.0234 1221.3 61.0234C1221.55 61.0234 1221.76 61.1094 1221.93 61.2812C1222.1 61.4479 1222.19 61.6562 1222.19 61.9062C1222.19 62.1458 1222.1 62.349 1221.93 62.5156C1221.76 62.6823 1221.55 62.7656 1221.3 62.7656ZM1227.53 70.8281H1232.66C1232.64 69.3542 1232.32 68.1927 1231.7 67.3438C1231.06 66.4844 1230.04 65.8385 1228.63 65.4062L1229 64.1562C1230.72 64.6927 1231.99 65.4661 1232.79 66.4766C1233.63 67.5391 1234.08 68.9896 1234.12 70.8281H1235.35V72H1227.53V70.8281ZM1235.14 70.8281H1237.38V60.7188H1238.85V72H1235.14V70.8281ZM1241.89 60.7188H1243.36V72H1241.89V60.7188ZM1255.35 60.7188H1256.83V70.8281H1258.54V72H1256.78C1256.49 74.4635 1255.19 75.6953 1252.88 75.6953C1250.25 75.6953 1248.94 74.2083 1248.94 71.2344C1248.94 70.1875 1249.07 69.1745 1249.34 68.1953L1250.86 67.9062C1250.56 68.9427 1250.41 70.0026 1250.41 71.0859C1250.41 73.3828 1251.28 74.5312 1253.02 74.5312C1254.57 74.5312 1255.35 73.4167 1255.35 71.1875V60.7188ZM1258.3 70.8281H1260.63V64.4766H1262.1V70.8281H1264.59V72H1258.3V70.8281ZM1260.51 74.3828C1260.51 74.6224 1260.42 74.8255 1260.26 74.9922C1260.09 75.1641 1259.89 75.25 1259.66 75.25C1259.42 75.25 1259.22 75.1667 1259.05 75C1258.89 74.8385 1258.81 74.6328 1258.81 74.3828C1258.81 74.1484 1258.89 73.9505 1259.05 73.7891C1259.22 73.6224 1259.42 73.5391 1259.66 73.5391C1259.89 73.5391 1260.09 73.6198 1260.26 73.7812C1260.42 73.9427 1260.51 74.1432 1260.51 74.3828ZM1262.86 74.3828C1262.86 74.6224 1262.78 74.8255 1262.62 74.9922C1262.46 75.1641 1262.26 75.25 1262.02 75.25C1261.78 75.25 1261.58 75.1667 1261.41 75C1261.25 74.8333 1261.16 74.6276 1261.16 74.3828C1261.16 74.1484 1261.25 73.9505 1261.41 73.7891C1261.58 73.6224 1261.78 73.5391 1262.02 73.5391C1262.26 73.5391 1262.46 73.6198 1262.62 73.7812C1262.78 73.9427 1262.86 74.1432 1262.86 74.3828ZM1264.36 70.8281H1270.97C1271.04 70.1771 1271.08 69.6302 1271.08 69.1875C1271.08 67.9375 1270.82 67.0339 1270.31 66.4766C1269.77 65.8828 1268.85 65.5859 1267.58 65.5859C1266.94 65.5859 1266.35 65.6224 1265.8 65.6953V64.5469C1266.36 64.4583 1266.99 64.4141 1267.7 64.4141C1269.42 64.4141 1270.66 64.8099 1271.44 65.6016C1272.17 66.3516 1272.54 67.5078 1272.54 69.0703C1272.54 69.5703 1272.51 70.1562 1272.44 70.8281H1273.91V72H1264.36V70.8281ZM1268.13 75.2656C1267.89 75.2656 1267.69 75.1823 1267.52 75.0156C1267.36 74.849 1267.27 74.6432 1267.27 74.3984C1267.27 74.1589 1267.36 73.9557 1267.52 73.7891C1267.69 73.6224 1267.89 73.5391 1268.13 73.5391C1268.38 73.5391 1268.59 73.6198 1268.76 73.7812C1268.93 73.9479 1269.02 74.1536 1269.02 74.3984C1269.02 74.638 1268.93 74.8438 1268.76 75.0156C1268.59 75.1823 1268.38 75.2656 1268.13 75.2656ZM1273.67 70.8281H1274.36C1274.95 70.8281 1275.37 70.6745 1275.62 70.3672C1275.88 70.0391 1276.01 69.4635 1276.01 68.6406V65.4375H1277.48V68.3516C1277.48 69.3047 1277.54 69.9427 1277.67 70.2656C1277.85 70.7188 1278.24 70.9453 1278.82 70.9453C1279.92 70.9453 1280.47 70.0859 1280.47 68.3672V64.7969H1281.9V68.8984C1281.9 69.7109 1282.07 70.2448 1282.41 70.5C1282.72 70.7188 1283.32 70.8281 1284.23 70.8281H1284.76C1284.85 70.099 1284.89 69.3594 1284.89 68.6094C1284.89 67.0156 1284.71 65.5443 1284.36 64.1953L1285.78 63.9375C1286.17 65.3073 1286.36 66.8203 1286.36 68.4766C1286.36 69.1328 1286.32 69.9167 1286.25 70.8281H1288.01V72H1284.28C1283.26 72 1282.52 71.9115 1282.05 71.7344C1281.57 71.5521 1281.21 71.2135 1280.98 70.7188C1280.63 71.6458 1279.83 72.1094 1278.57 72.1094C1277.45 72.1094 1276.76 71.651 1276.5 70.7344C1276.19 71.5781 1275.48 72 1274.36 72H1273.67V70.8281ZM1287.78 70.8281H1290.12V64.4766H1291.59V72H1287.78V70.8281ZM1291.78 63.0078C1291.54 63.0078 1291.34 62.9271 1291.17 62.7656C1291 62.599 1290.91 62.3906 1290.91 62.1406C1290.91 61.9115 1291 61.7135 1291.17 61.5469C1291.34 61.3802 1291.54 61.2969 1291.78 61.2969C1292.02 61.2969 1292.21 61.3776 1292.38 61.5391C1292.53 61.7057 1292.61 61.9062 1292.61 62.1406C1292.61 62.3854 1292.53 62.5911 1292.38 62.7578C1292.21 62.9245 1292.02 63.0078 1291.78 63.0078ZM1289.41 63.0078C1289.17 63.0078 1288.97 62.9271 1288.81 62.7656C1288.65 62.599 1288.56 62.3906 1288.56 62.1406C1288.56 61.9115 1288.65 61.7135 1288.81 61.5469C1288.97 61.3802 1289.17 61.2969 1289.41 61.2969C1289.65 61.2969 1289.85 61.3776 1290.01 61.5391C1290.17 61.7057 1290.26 61.9062 1290.26 62.1406C1290.26 62.3802 1290.17 62.5859 1290.01 62.7578C1289.85 62.9245 1289.65 63.0078 1289.41 63.0078Z" fill="#CECECE"/>
</svg>
