<svg width="17" height="16" viewBox="0 0 17 16" fill="none" xmlns="http://www.w3.org/2000/svg">
<path d="M14.7865 0.531988C11.1598 -1.5464 8.5597 2.89705 8.01228 6.4088C7.19116 4.97543 6.02791 3.82874 4.45409 3.54206C2.26443 3.18372 0.416908 4.97543 0.0747736 7.12549C-0.814775 12.644 6.43847 16.8007 10.8861 15.869C10.9545 15.869 11.0231 15.7974 11.0914 15.7256C11.3651 16.0123 11.844 16.0123 12.1179 15.654C14.1023 12.5006 20.2607 3.6854 14.7865 0.531988ZM15.4024 5.76367C15.0601 9.13209 12.5968 12.1422 11.0231 15.0088C10.9547 15.0807 10.9547 15.1522 10.9547 15.2239H10.8863C7.7388 14.8653 3.63319 13.1455 2.05938 10.1354C1.23825 8.63041 1.16983 5.19032 3.49634 4.90365C6.02813 4.61697 6.84925 7.19704 8.01251 8.98875C8.35464 9.49043 9.10734 9.20376 8.90206 8.55874C8.90206 8.4154 8.83363 8.27207 8.7652 8.12873C8.90206 6.40869 9.31262 4.83198 10.2706 3.39861C10.818 2.61026 12.118 1.39189 13.1445 1.46356C15.1288 1.67868 15.5393 4.18696 15.4024 5.76367Z" fill="black"/>
</svg>
